# xmcd
#
# Track frame offsets:
#	150
#	20086
#	33594
#	46419
#	66870
#	79958
#	102665
#	120778
#	134383
#	153970
#	172694
#	192637
#	210141
#
# Disc length: 3005 seconds
#
# Revision: 0
# Processed by: cddbd v1.4PL0 Copyright (c) Steve Scherf et al.
# Submitted via: EasyCDDAExtractor 4.6.9.1
#
DISCID=aa0bbb0d
DTITLE=Robin and Linda Williams - Visions Of Love
DYEAR=2002
DGENRE=Country
TTITLE0=I'll Twine 'Mid The Ringlets
TTITLE1=After The Fire Is Gone
TTITLE2=You're Running Wild
TTITLE3=Ramblin' Man
TTITLE4=Wasting My Time. Wasting My Love On You
TTITLE5=Too Late. Too Late
TTITLE6=Mississippi Delta Blues
TTITLE7=The Blues Come Around
TTITLE8=Hungry Eyes
TTITLE9=Wash Me In Thy Precious Blood
TTITLE10=Keep The Home Fires Burning
TTITLE11=Wandering Boy
TTITLE12=If I Should Fall Behind
EXTD=
EXTT0=
EXTT1=
EXTT2=
EXTT3=
EXTT4=
EXTT5=
EXTT6=
EXTT7=
EXTT8=
EXTT9=
EXTT10=
EXTT11=
EXTT12=
PLAYORDER=
